<mxfile host="app.diagrams.net" agent="Mozilla/5.0 (Windows NT 10.0; Win64; x64) AppleWebKit/537.36 (KHTML, like Gecko) Chrome/130.0.0.0 Safari/537.36" version="24.8.4">
  <diagram name="Page-1" id="XGDIcfB1qQyD2qvqPcb-">
    <mxGraphModel dx="1299" dy="563" grid="1" gridSize="10" guides="1" tooltips="1" connect="1" arrows="1" fold="1" page="1" pageScale="1" pageWidth="850" pageHeight="1100" math="0" shadow="0">
      <root>
        <mxCell id="0" />
        <mxCell id="1" parent="0" />
        <mxCell id="vKq-Uz0_vq1EwovhOex8-3" value="&lt;font style=&quot;font-size: 18px;&quot;&gt;CANDIDATE&lt;/font&gt;" style="html=1;whiteSpace=wrap;" vertex="1" parent="1">
          <mxGeometry x="340" y="320" width="158" height="60" as="geometry" />
        </mxCell>
        <mxCell id="vKq-Uz0_vq1EwovhOex8-18" style="edgeStyle=orthogonalEdgeStyle;rounded=0;orthogonalLoop=1;jettySize=auto;html=1;exitX=0.75;exitY=0;exitDx=0;exitDy=0;" edge="1" parent="1" target="vKq-Uz0_vq1EwovhOex8-3">
          <mxGeometry relative="1" as="geometry">
            <mxPoint x="378" y="373" as="targetPoint" />
            <mxPoint x="180" y="556" as="sourcePoint" />
            <Array as="points">
              <mxPoint x="180" y="396" />
              <mxPoint x="378" y="396" />
            </Array>
          </mxGeometry>
        </mxCell>
        <mxCell id="vKq-Uz0_vq1EwovhOex8-19" value="&lt;span style=&quot;text-wrap-mode: wrap; background-color: rgb(251, 251, 251);&quot;&gt;&lt;font style=&quot;font-size: 18px;&quot;&gt;REQUEST COMPLETE&lt;/font&gt;&lt;/span&gt;" style="edgeLabel;html=1;align=center;verticalAlign=middle;resizable=0;points=[];" vertex="1" connectable="0" parent="vKq-Uz0_vq1EwovhOex8-18">
          <mxGeometry x="0.7104" y="-3" relative="1" as="geometry">
            <mxPoint x="-73" as="offset" />
          </mxGeometry>
        </mxCell>
        <mxCell id="vKq-Uz0_vq1EwovhOex8-20" style="edgeStyle=orthogonalEdgeStyle;rounded=0;orthogonalLoop=1;jettySize=auto;html=1;exitX=0;exitY=0;exitDx=0;exitDy=0;entryX=0;entryY=0.25;entryDx=0;entryDy=0;" edge="1" parent="1" source="vKq-Uz0_vq1EwovhOex8-4" target="vKq-Uz0_vq1EwovhOex8-3">
          <mxGeometry relative="1" as="geometry">
            <Array as="points">
              <mxPoint x="120" y="556" />
              <mxPoint x="120" y="335" />
            </Array>
          </mxGeometry>
        </mxCell>
        <mxCell id="vKq-Uz0_vq1EwovhOex8-21" value="&lt;font style=&quot;font-size: 18px;&quot;&gt;REQUEST FOR DATA&amp;nbsp;&lt;/font&gt;&lt;div&gt;&lt;font style=&quot;font-size: 18px;&quot;&gt;FROM CANDIDATE&lt;/font&gt;&lt;/div&gt;" style="edgeLabel;html=1;align=center;verticalAlign=middle;resizable=0;points=[];rotation=-90;" vertex="1" connectable="0" parent="vKq-Uz0_vq1EwovhOex8-20">
          <mxGeometry x="0.2017" relative="1" as="geometry">
            <mxPoint x="-31" y="110" as="offset" />
          </mxGeometry>
        </mxCell>
        <mxCell id="vKq-Uz0_vq1EwovhOex8-24" style="edgeStyle=orthogonalEdgeStyle;rounded=0;orthogonalLoop=1;jettySize=auto;html=1;exitX=1;exitY=0.25;exitDx=0;exitDy=0;entryX=0;entryY=0.25;entryDx=0;entryDy=0;" edge="1" parent="1" source="vKq-Uz0_vq1EwovhOex8-4" target="vKq-Uz0_vq1EwovhOex8-5">
          <mxGeometry relative="1" as="geometry">
            <mxPoint x="390" y="546" as="targetPoint" />
          </mxGeometry>
        </mxCell>
        <mxCell id="vKq-Uz0_vq1EwovhOex8-26" value="&lt;font style=&quot;font-size: 18px;&quot;&gt;REQUEST FOR DATA FROM VOTER&lt;/font&gt;" style="edgeLabel;html=1;align=center;verticalAlign=middle;resizable=0;points=[];" vertex="1" connectable="0" parent="vKq-Uz0_vq1EwovhOex8-24">
          <mxGeometry x="-0.0582" y="-1" relative="1" as="geometry">
            <mxPoint x="1" as="offset" />
          </mxGeometry>
        </mxCell>
        <mxCell id="vKq-Uz0_vq1EwovhOex8-31" style="edgeStyle=orthogonalEdgeStyle;rounded=0;orthogonalLoop=1;jettySize=auto;html=1;exitX=0.25;exitY=1;exitDx=0;exitDy=0;entryX=0;entryY=0.75;entryDx=0;entryDy=0;" edge="1" parent="1" source="vKq-Uz0_vq1EwovhOex8-4" target="vKq-Uz0_vq1EwovhOex8-10">
          <mxGeometry relative="1" as="geometry" />
        </mxCell>
        <mxCell id="vKq-Uz0_vq1EwovhOex8-32" value="&lt;font style=&quot;font-size: 18px;&quot;&gt;LOGIN REQUIRED&lt;/font&gt;" style="edgeLabel;html=1;align=center;verticalAlign=middle;resizable=0;points=[];rotation=-90;" vertex="1" connectable="0" parent="vKq-Uz0_vq1EwovhOex8-31">
          <mxGeometry x="-0.4636" y="2" relative="1" as="geometry">
            <mxPoint x="-4" as="offset" />
          </mxGeometry>
        </mxCell>
        <mxCell id="vKq-Uz0_vq1EwovhOex8-4" value="&lt;font style=&quot;font-size: 18px;&quot;&gt;ADMIN&lt;/font&gt;" style="html=1;whiteSpace=wrap;" vertex="1" parent="1">
          <mxGeometry x="109.99999999999999" y="556" width="110" height="50" as="geometry" />
        </mxCell>
        <mxCell id="vKq-Uz0_vq1EwovhOex8-25" style="edgeStyle=orthogonalEdgeStyle;rounded=0;orthogonalLoop=1;jettySize=auto;html=1;exitX=0;exitY=0.75;exitDx=0;exitDy=0;entryX=1;entryY=0.75;entryDx=0;entryDy=0;" edge="1" parent="1" source="vKq-Uz0_vq1EwovhOex8-5" target="vKq-Uz0_vq1EwovhOex8-4">
          <mxGeometry relative="1" as="geometry" />
        </mxCell>
        <mxCell id="vKq-Uz0_vq1EwovhOex8-27" value="&lt;font style=&quot;font-size: 18px;&quot;&gt;REQUEST COMPLETE&lt;/font&gt;" style="edgeLabel;html=1;align=center;verticalAlign=middle;resizable=0;points=[];" vertex="1" connectable="0" parent="vKq-Uz0_vq1EwovhOex8-25">
          <mxGeometry x="-0.0252" relative="1" as="geometry">
            <mxPoint as="offset" />
          </mxGeometry>
        </mxCell>
        <mxCell id="vKq-Uz0_vq1EwovhOex8-5" value="&lt;font style=&quot;font-size: 18px;&quot;&gt;VOTER&lt;/font&gt;" style="html=1;whiteSpace=wrap;" vertex="1" parent="1">
          <mxGeometry x="590" y="556" width="110" height="50" as="geometry" />
        </mxCell>
        <mxCell id="vKq-Uz0_vq1EwovhOex8-9" value="" style="line;strokeWidth=2;html=1;" vertex="1" parent="1">
          <mxGeometry x="220" y="576" width="328" height="10" as="geometry" />
        </mxCell>
        <mxCell id="vKq-Uz0_vq1EwovhOex8-10" value="&lt;font style=&quot;font-size: 18px;&quot;&gt;ONLINE&amp;nbsp; &amp;nbsp; &amp;nbsp; &amp;nbsp; &amp;nbsp; &amp;nbsp; &amp;nbsp; &amp;nbsp;VOTING&lt;/font&gt;&lt;div&gt;&lt;span style=&quot;background-color: initial;&quot;&gt;&lt;font style=&quot;font-size: 18px;&quot;&gt;SYSTEM&amp;nbsp; &amp;nbsp; &amp;nbsp; &amp;nbsp; &amp;nbsp; &amp;nbsp;&amp;nbsp;&amp;nbsp; &amp;nbsp; &amp;nbsp; &amp;nbsp; &amp;nbsp; &amp;nbsp; &amp;nbsp; &amp;nbsp;&lt;/font&gt;&lt;/span&gt;&lt;/div&gt;" style="html=1;whiteSpace=wrap;" vertex="1" parent="1">
          <mxGeometry x="360" y="780" width="240" height="90" as="geometry" />
        </mxCell>
        <mxCell id="vKq-Uz0_vq1EwovhOex8-29" style="edgeStyle=orthogonalEdgeStyle;rounded=0;orthogonalLoop=1;jettySize=auto;html=1;exitX=0.75;exitY=1;exitDx=0;exitDy=0;entryX=0;entryY=0.25;entryDx=0;entryDy=0;" edge="1" parent="1" source="vKq-Uz0_vq1EwovhOex8-4" target="vKq-Uz0_vq1EwovhOex8-10">
          <mxGeometry relative="1" as="geometry">
            <mxPoint x="210" y="616" as="sourcePoint" />
            <mxPoint x="260" y="806" as="targetPoint" />
            <Array as="points">
              <mxPoint x="192" y="803" />
            </Array>
          </mxGeometry>
        </mxCell>
        <mxCell id="vKq-Uz0_vq1EwovhOex8-30" value="&lt;font style=&quot;font-size: 18px;&quot;&gt;ADD VOTER&lt;/font&gt;&lt;div&gt;&lt;font style=&quot;font-size: 18px;&quot;&gt;ADD CANDIDATE&lt;/font&gt;&lt;/div&gt;" style="edgeLabel;html=1;align=center;verticalAlign=middle;resizable=0;points=[];rotation=-90;" vertex="1" connectable="0" parent="vKq-Uz0_vq1EwovhOex8-29">
          <mxGeometry x="-0.0935" y="1" relative="1" as="geometry">
            <mxPoint y="-59" as="offset" />
          </mxGeometry>
        </mxCell>
        <mxCell id="vKq-Uz0_vq1EwovhOex8-33" style="edgeStyle=orthogonalEdgeStyle;rounded=0;orthogonalLoop=1;jettySize=auto;html=1;exitX=0;exitY=1;exitDx=0;exitDy=0;" edge="1" parent="1" source="vKq-Uz0_vq1EwovhOex8-10">
          <mxGeometry relative="1" as="geometry">
            <mxPoint x="260" y="849" as="sourcePoint" />
            <mxPoint x="117.99999999999999" y="606" as="targetPoint" />
            <Array as="points">
              <mxPoint x="118" y="870" />
            </Array>
          </mxGeometry>
        </mxCell>
        <mxCell id="vKq-Uz0_vq1EwovhOex8-34" value="&lt;font style=&quot;font-size: 18px;&quot;&gt;OK&lt;/font&gt;" style="edgeLabel;html=1;align=center;verticalAlign=middle;resizable=0;points=[];" vertex="1" connectable="0" parent="vKq-Uz0_vq1EwovhOex8-33">
          <mxGeometry x="0.1261" relative="1" as="geometry">
            <mxPoint x="12" y="43" as="offset" />
          </mxGeometry>
        </mxCell>
        <mxCell id="vKq-Uz0_vq1EwovhOex8-35" value="Adding Voter and Candidate Information" style="text;strokeColor=none;fillColor=none;html=1;fontSize=24;fontStyle=1;verticalAlign=middle;align=center;" vertex="1" parent="1">
          <mxGeometry x="185" y="889" width="480" height="40" as="geometry" />
        </mxCell>
        <mxCell id="vKq-Uz0_vq1EwovhOex8-36" value="&lt;b&gt;&lt;u&gt;&lt;font style=&quot;font-size: 24px;&quot;&gt;E-Voting System&lt;/font&gt;&lt;/u&gt;&lt;/b&gt;" style="text;html=1;align=center;verticalAlign=middle;whiteSpace=wrap;rounded=0;" vertex="1" parent="1">
          <mxGeometry x="285" y="230" width="280" height="51" as="geometry" />
        </mxCell>
        <mxCell id="vKq-Uz0_vq1EwovhOex8-37" value="&lt;font style=&quot;font-size: 24px;&quot;&gt;&lt;b style=&quot;&quot;&gt;Meenakshi Bharadwaj&lt;/b&gt;&lt;/font&gt;&lt;div&gt;&lt;font style=&quot;font-size: 24px;&quot;&gt;&lt;b&gt;MCA-III-B&lt;/b&gt;&lt;/font&gt;&lt;/div&gt;&lt;div&gt;&lt;font style=&quot;font-size: 24px;&quot;&gt;&lt;b&gt;2300290140102&lt;/b&gt;&lt;/font&gt;&lt;/div&gt;&lt;div&gt;&lt;font style=&quot;font-size: 24px;&quot;&gt;&lt;b style=&quot;&quot;&gt;&lt;u style=&quot;&quot;&gt;SE Practical 08&lt;/u&gt;&lt;/b&gt;&lt;/font&gt;&lt;/div&gt;" style="text;html=1;align=center;verticalAlign=middle;whiteSpace=wrap;rounded=0;" vertex="1" parent="1">
          <mxGeometry x="25" y="10" width="800" height="130" as="geometry" />
        </mxCell>
        <mxCell id="vKq-Uz0_vq1EwovhOex8-38" value="&lt;font style=&quot;font-size: 18px;&quot;&gt;&lt;span style=&quot;color: rgb(101, 101, 101); font-family: &amp;quot;Century Gothic&amp;quot;, Arial, Helvetica, sans-serif; font-style: normal; font-variant-ligatures: normal; font-variant-caps: normal; letter-spacing: normal; orphans: 2; text-indent: 0px; text-transform: none; widows: 2; word-spacing: 0px; -webkit-text-stroke-width: 0px; white-space: normal; background-color: rgb(255, 255, 255); text-decoration-thickness: initial; text-decoration-style: initial; text-decoration-color: initial; float: none; display: inline !important;&quot;&gt;&lt;font style=&quot;&quot;&gt;&lt;u style=&quot;&quot;&gt;Practical 08:&lt;/u&gt;&amp;nbsp;&lt;/font&gt;&lt;/span&gt;&lt;span style=&quot;color: rgb(101, 101, 101); font-family: &amp;quot;Century Gothic&amp;quot;, Arial, Helvetica, sans-serif; text-align: left; background-color: rgb(255, 255, 255);&quot;&gt;Draw the collaboration diagram for the specified Case Study.&lt;/span&gt;&lt;/font&gt;" style="text;whiteSpace=wrap;html=1;align=center;fontStyle=1" vertex="1" parent="1">
          <mxGeometry x="138" y="156" width="575" height="40" as="geometry" />
        </mxCell>
        <mxCell id="vKq-Uz0_vq1EwovhOex8-50" value="" style="endArrow=none;html=1;rounded=0;edgeStyle=orthogonalEdgeStyle;entryX=0;entryY=0.5;entryDx=0;entryDy=0;exitX=0.5;exitY=0;exitDx=0;exitDy=0;" edge="1" parent="1" source="vKq-Uz0_vq1EwovhOex8-4" target="vKq-Uz0_vq1EwovhOex8-3">
          <mxGeometry width="50" height="50" relative="1" as="geometry">
            <mxPoint x="160" y="490" as="sourcePoint" />
            <mxPoint x="320" y="390" as="targetPoint" />
            <Array as="points">
              <mxPoint x="160" y="556" />
              <mxPoint x="160" y="350" />
            </Array>
          </mxGeometry>
        </mxCell>
        <mxCell id="vKq-Uz0_vq1EwovhOex8-51" value="" style="endArrow=none;html=1;rounded=0;edgeStyle=orthogonalEdgeStyle;exitX=1;exitY=0.75;exitDx=0;exitDy=0;" edge="1" parent="1" source="vKq-Uz0_vq1EwovhOex8-10" target="vKq-Uz0_vq1EwovhOex8-3">
          <mxGeometry width="50" height="50" relative="1" as="geometry">
            <mxPoint x="620" y="830" as="sourcePoint" />
            <mxPoint x="490" y="350" as="targetPoint" />
            <Array as="points">
              <mxPoint x="720" y="839" />
              <mxPoint x="720" y="350" />
            </Array>
          </mxGeometry>
        </mxCell>
        <mxCell id="vKq-Uz0_vq1EwovhOex8-52" value="" style="endArrow=none;html=1;rounded=0;exitX=0.5;exitY=1;exitDx=0;exitDy=0;edgeStyle=orthogonalEdgeStyle;entryX=0;entryY=0.5;entryDx=0;entryDy=0;" edge="1" parent="1" source="vKq-Uz0_vq1EwovhOex8-4" target="vKq-Uz0_vq1EwovhOex8-10">
          <mxGeometry width="50" height="50" relative="1" as="geometry">
            <mxPoint x="520" y="610" as="sourcePoint" />
            <mxPoint x="165" y="810" as="targetPoint" />
          </mxGeometry>
        </mxCell>
        <mxCell id="vKq-Uz0_vq1EwovhOex8-53" value="" style="endArrow=none;html=1;rounded=0;entryX=0.5;entryY=1;entryDx=0;entryDy=0;edgeStyle=orthogonalEdgeStyle;exitX=1;exitY=0.5;exitDx=0;exitDy=0;" edge="1" parent="1" source="vKq-Uz0_vq1EwovhOex8-10" target="vKq-Uz0_vq1EwovhOex8-5">
          <mxGeometry width="50" height="50" relative="1" as="geometry">
            <mxPoint x="520" y="690" as="sourcePoint" />
            <mxPoint x="570" y="640" as="targetPoint" />
            <Array as="points">
              <mxPoint x="645" y="820" />
            </Array>
          </mxGeometry>
        </mxCell>
      </root>
    </mxGraphModel>
  </diagram>
</mxfile>
